<?xml version="1.0" standalone="no"?>
<!DOCTYPE svg PUBLIC "-//W3C//DTD SVG 20010904//EN"
 "http://www.w3.org/TR/2001/REC-SVG-20010904/DTD/svg10.dtd">
<svg version="1.0" xmlns="http://www.w3.org/2000/svg"
 width="800.000000pt" height="800.000000pt" viewBox="0 0 800.000000 800.000000"
 preserveAspectRatio="xMidYMid meet">
<metadata>
Created by potrace 1.11, written by Peter Selinger 2001-2013
</metadata>
<g transform="translate(0.000000,800.000000) scale(0.100000,-0.100000)"
fill="#000000" stroke="none">
<path d="M0 4000 l0 -4000 4000 0 4000 0 0 4000 0 4000 -4000 0 -4000 0 0
-4000z m4332 1445 l413 -490 145 -23 c79 -12 147 -26 150 -31 3 -4 74 -116
159 -249 85 -133 159 -242 165 -242 6 0 116 27 245 59 l234 59 22 -26 c12 -15
116 -142 229 -282 l208 -255 236 -45 236 -46 344 -554 c189 -305 348 -564 354
-575 l10 -20 -19 20 c-11 11 -192 228 -402 482 -210 254 -386 465 -391 468 -4
3 -85 25 -179 50 l-171 45 -271 248 c-148 136 -273 248 -277 249 -4 2 -126
-211 -271 -473 -145 -261 -267 -471 -271 -467 -4 4 -251 400 -549 879 l-541
871 -6 104 -7 104 -115 193 c-63 106 -118 189 -122 185 -4 -4 -105 -321 -225
-703 -262 -840 -394 -1252 -404 -1263 -4 -4 -50 -19 -102 -34 -52 -14 -97 -29
-101 -32 -4 -4 150 -213 343 -465 193 -252 349 -459 347 -461 -7 -6 -1383
1026 -1386 1040 -2 8 6 61 17 117 l21 103 -208 208 -209 209 -184 -360 -184
-360 -250 -190 -251 -190 -418 -423 c-230 -233 -412 -413 -403 -399 9 14 216
372 462 795 246 424 449 772 451 774 3 3 56 -8 119 -23 63 -15 119 -26 124
-24 5 1 114 161 242 353 127 193 236 349 240 347 5 -1 183 -112 396 -247 306
-194 390 -243 399 -233 6 7 245 380 530 828 285 448 538 846 562 884 l45 69
28 -34 c15 -19 214 -254 441 -524z m-386 -2098 c285 -201 294 -207 385 -233
52 -14 99 -31 106 -38 6 -6 123 -204 258 -441 136 -236 256 -446 268 -465 11
-19 16 -30 10 -25 -28 28 -1300 1374 -1322 1400 -14 16 -19 24 -11 19 8 -6
146 -104 306 -217z m-2272 -294 c-321 -452 -374 -525 -374 -513 0 3 80 190
178 415 l177 410 180 92 c99 50 181 90 183 88 2 -2 -153 -223 -344 -492z
m4718 351 c170 -69 164 -62 73 -99 -93 -39 -69 1 -240 -398 -70 -164 -129
-296 -131 -294 -6 6 170 837 178 837 4 0 58 -21 120 -46z"/>
</g>
</svg>
